<?xml version="1.0" standalone="no"?><!DOCTYPE svg PUBLIC "-//W3C//DTD SVG 1.1//EN" "http://www.w3.org/Graphics/SVG/1.1/DTD/svg11.dtd"><svg t="1668493685796" class="icon" viewBox="0 0 1024 1024" version="1.1" xmlns="http://www.w3.org/2000/svg" p-id="1945" width="128" height="128" xmlns:xlink="http://www.w3.org/1999/xlink"><path d="M670.6176 715.2128m-179.0976 0a179.0976 179.0976 0 1 0 358.1952 0 179.0976 179.0976 0 1 0-358.1952 0Z" fill="#FFBE0A" p-id="1946"></path><path d="M695.1424 311.7056c0-121.1392-98.56-219.7504-219.7504-219.7504S255.6928 190.5664 255.6928 311.7056c0 69.632 32.6144 131.7888 83.3024 172.0832-135.9872 52.224-232.8064 184.1152-232.8064 338.2272 0 41.8816 34.048 75.9296 75.9296 75.9296h260.5568c19.8144 0 35.84-16.0256 35.84-35.84s-16.0256-35.84-35.84-35.84H182.1184c-2.3552 0-4.2496-1.8944-4.2496-4.2496 0-160.2048 130.3552-290.56 290.56-290.56h13.9264c1.4848 0 2.9184-0.1024 4.352-0.3072 115.968-5.888 208.4352-102.0416 208.4352-219.4432zM475.4432 459.776c-81.664 0-148.0704-66.4064-148.0704-148.0704s66.4064-148.0704 148.0704-148.0704 148.0704 66.4064 148.0704 148.0704S557.056 459.776 475.4432 459.776zM714.2912 833.2288c-9.1136 0-17.8688-3.4304-24.5248-9.728l-86.272-81.0496c-14.4384-13.568-15.1552-36.2496-1.5872-50.6368 13.568-14.4384 36.2496-15.1552 50.6368-1.5872l58.1632 54.6304 134.5536-166.0928c12.4416-15.36 35.0208-17.7664 50.432-5.2736 15.36 12.4416 17.7664 35.0208 5.2736 50.432l-158.8224 196.096a35.76832 35.76832 0 0 1-25.3952 13.2096h-2.4576z" fill="#34332E" p-id="1947"></path></svg>