<?xml version="1.0" standalone="no"?><!DOCTYPE svg PUBLIC "-//W3C//DTD SVG 1.1//EN" "http://www.w3.org/Graphics/SVG/1.1/DTD/svg11.dtd"><svg t="1668561344192" class="icon" viewBox="0 0 1024 1024" version="1.1" xmlns="http://www.w3.org/2000/svg" p-id="4317" xmlns:xlink="http://www.w3.org/1999/xlink" width="128" height="128"><path d="M474.339278 713.673054c1.236293-6.908254-3.441639-13.49682-10.447298-14.718127l-11.1616-1.940605c-7.005659-1.21881-13.684137 3.394185-14.920429 10.307434l-5.864273 32.805464a14.982868 14.982868 0 0 1-17.388019 12.118165l-0.059942-0.00999-20.005463-3.663922c-6.94322-1.203824-13.459356 3.291785-14.665678 10.037698-1.21881 6.815844 3.361717 13.33198 10.262478 14.595746l45.036019 8.241951c0.761756 0.289717 1.563473 0.512 2.397659 0.656859l11.1616 1.940605a12.982322 12.982322 0 0 0 5.544585-0.229776c4.667941-1.148878 8.449249-4.90521 9.340878-9.880351 0.012488-0.089912 3.60398-20.177795 10.769483-60.261151z" fill="#6FCB6C" p-id="4318"></path><path d="M388.737873 780.570224c-10.939317-2.003044-18.23719-12.382907-16.289093-23.282263 1.938107-10.851902 12.365424-18.004917 23.389659-16.08679l20.005463 3.666419a7.502673 7.502673 0 0 0 8.723981-6.056585l5.864273-32.807961c1.96558-10.991766 12.532761-18.289639 23.579473-16.369015l11.1616 1.940605c11.074185 1.92562 18.509424 12.40039 16.538849 23.414634l-10.769483 60.258654a19.913054 19.913054 0 0 1-14.813034 15.807063 20.457522 20.457522 0 0 1-8.733971 0.364644l-11.1616-1.940605a20.529951 20.529951 0 0 1-3.057014-0.776741l-44.439103-8.132059z m73.870361-74.232507l-11.1616-1.938107c-2.964605-0.514498-5.75438 1.411122-6.261385 4.240858l-5.864273 32.807961a22.473054 22.473054 0 0 1-26.08203 18.169756l-20.030439-3.666419c-2.894673-0.504507-5.527102 1.303727-6.004136 3.968624-0.489522 2.739824 1.371161 5.384741 4.235863 5.906732l45.705366 8.369327 0.636878 0.242263c0.324683 0.12238 0.669346 0.217288 1.026498 0.274732l11.1616 1.940605c0.804215 0.144859 1.598439 0.104898 2.472585-0.122381 1.938107-0.477034 3.411668-2.008039 3.751337-3.913678l10.77198-60.263649c0.497015-2.797268-1.42361-5.504624-4.358244-6.016624z" fill="#524F75" p-id="4319"></path><path d="M612.334517 695.713093c-2.172878-6.750907-9.348371-10.4448-16.031844-8.251942l-10.647102 3.494088c-6.680976 2.192859-10.339902 9.438283-8.169522 16.186693l10.522224 32.705561a14.987863 14.987863 0 0 1-9.575649 18.824117l-17.825092 5.876761c-6.578576 2.167883-10.170068 9.305912-8.034654 15.951922 2.145405 6.64601 9.211005 10.264976 15.7696 8.102087l54.883902-18.092331c6.578576-2.167883 10.170068-9.305912 8.034654-15.951922-0.022478-0.084917-6.333815-19.700761-18.926517-58.845034z" fill="#6FCB6C" p-id="4320"></path><path d="M638.399063 752.262868c3.38919 10.552195-2.322732 21.901112-12.824975 25.362732l-54.881405 18.089834c-10.529717 3.474107-21.828683-2.332722-25.250342-12.924878-3.391688-10.554693 2.322732-21.906107 12.819981-25.357736l17.82759-5.879259a7.497678 7.497678 0 0 0 4.787825-9.413307l-10.522225-32.708059c-3.429151-10.65959 2.350205-22.120898 12.959844-25.602497l10.6496-3.494088c10.644605-3.489093 22.058459 2.385171 25.502595 13.074731l18.931512 58.852527z m-39.76117-57.68117l-10.6496 3.49159c-2.75481 0.904117-4.285815 3.938654-3.374205 6.77838l10.522224 32.705561c3.7888 11.761015-2.632429 24.366205-14.358478 28.234927l-17.830088 5.879259c-2.65241 0.876644-4.123473 3.79879-3.249326 6.528624 0.876644 2.704859 3.693893 4.150946 6.296351 3.289288l54.883902-18.089834c2.65241-0.876644 4.125971-3.801288 3.249327-6.53362l-18.936507-58.852527c-0.894127-2.812254-3.831259-4.325776-6.5536-3.431648z" fill="#524F75" p-id="4321"></path><path d="M477.326361 500.246478c-31.943805 9.8304-55.937873 16.646244-71.992195 20.445034-16.044332 3.806283-34.159141 6.960702-54.341932 9.478244-1.583454 6.378771-4.782829 10.744507-9.585639 13.099707-7.202966 3.531551-20.025444 10.389854-29.026654 8.266927-9.008702-2.117932-15.35001-4.490615-20.027941-17.587824-4.680429-13.092215-1.683356-26.678946 3.87122-32.580683 5.557073-5.901737 17.343063-10.085151 24.703375-11.628644 4.907707-1.026498 10.574673 0.541971 17.000898 4.7104 24.408663-11.34642 43.297717-19.490966 56.669658-24.431141 13.371941-4.940176 37.183688-12.577717 71.445229-22.90763" fill="#70C56E" p-id="4322"></path><path d="M344.713366 549.995395c-0.324683 0.154849-0.664351 0.324683-1.13639 0.559454l-1.253776 0.619395c-1.078946 0.529483-1.923122 0.946576-2.782283 1.356176-3.7888 1.82322-7.043122 3.219356-10.299941 4.345756-6.928234 2.397659-13.029776 3.259317-18.576859 1.950595-13.621698-3.206868-20.340137-8.291902-25.367727-22.360664-5.23239-14.640702-2.719844-31.544195 5.472156-40.240702 6.101541-6.478673 17.832585-11.558712 28.617054-13.821503 6.011629-1.261268 12.345444 0.042459 18.958985 3.586498 22.857678-10.562185 40.722732-18.224702 53.64761-23.002537 13.559259-5.005112 37.485893-12.675122 71.882303-23.047492a7.492683 7.492683 0 1 1 4.328273 14.348488c-34.121678 10.289951-57.823532 17.890029-71.010654 22.760273-13.144663 4.857756-31.868878 12.927376-56.107707 24.198868a7.500176 7.500176 0 0 1-7.235434-0.507005c-4.910205-3.18439-8.681522-4.228371-11.386381-3.663922-8.059629 1.688351-17.243161 5.669463-20.784702 9.428293-4.07602 4.330771-5.706927 15.297561-2.265288 24.925658 3.144429 8.791415 5.649483 10.689561 14.690654 12.814986 2.227824 0.524488 5.749385 0.024976 10.24-1.523512 2.627434-0.909112 5.397229-2.097951 8.716487-3.696391a656.558829 656.558829 0 0 0 5.055064-2.485073c2.692371-1.318712 4.533073-3.831259 5.614517-8.18201a7.497678 7.497678 0 0 1 6.343805-5.624507c19.923044-2.485073 37.770615-5.599532 53.547707-9.330888 15.849522-3.758829 39.71122-10.53721 71.515161-20.322653a7.492683 7.492683 0 0 1 4.405698 14.323512c-32.088663 9.875356-56.225093 16.728663-72.46923 20.577405-15.067785 3.571512-31.878868 6.57358-50.450731 9.02119-2.472585 5.884254-6.46119 10.317424-11.910869 12.992312z" fill="#524F75" p-id="4323"></path><path d="M293.208663 516.375727l18.761678-6.333815a3.746341 3.746341 0 1 1 2.397659 7.095571l-18.761678 6.336312a3.746341 3.746341 0 1 1-2.397659-7.098068zM298.940566 531.006439l18.764175-6.336312a3.746341 3.746341 0 0 1 2.402654 7.093073l-18.764175 6.341307a3.751337 3.751337 0 0 1-4.750361-2.350205 3.743844 3.743844 0 0 1 2.347707-4.747863z" fill="#524F75" p-id="4324"></path><path d="M691.232468 573.682263c9.323395 3.581502 12.385405 23.482068 9.181034 59.706693L644.455649 611.902439c21.856156-29.059122 37.450927-41.79918 46.776819-38.220176z" fill="#B0E6BB" p-id="4325"></path><path d="M693.213034 592.631259c-1.028995-7.582595-2.872195-11.231532-4.365736-11.833444-1.491044-0.601912-5.349776 0.741776-11.35641 5.479648-5.896741 4.647961-12.959844 11.925854-21.121873 21.80121l36.891473 14.907942c0.991532-12.772527 0.964059-22.915122-0.047454-30.355356z m1.248781-25.727376c14.001327 5.661971 17.013385 27.76039 12.782517 67.59399a7.492683 7.492683 0 0 1-10.254986 6.156488l-55.575726-22.453073a7.490185 7.490185 0 0 1-3.101971-11.55122c24.633444-31.596644 42.146341-45.405659 56.150166-39.746185z" fill="#524F75" p-id="4326"></path><path d="M743.164254 590.053776c7.67001 1.918127 11.918361 17.560351 12.747551 46.939161l-46.045034-11.481288c14.525815-25.550049 25.61998-37.371005 33.297483-35.457873z" fill="#B0E6BB" p-id="4327"></path><path d="M745.15481 605.556137c-1.198829-5.542088-2.619941-7.887298-3.111961-8.039649-0.487024-0.152351-2.97959 0.999024-7.068098 4.92519-4.018576 3.853737-8.718985 9.64558-14.043785 17.348059l26.166946 7.999687c-0.114888-9.363356-0.766751-16.7936-1.943102-22.233287z m1.268761-22.370654c12.510283 3.823766 16.384 21.743766 15.579785 54.888897a7.500176 7.500176 0 0 1-9.683044 6.985679l-45.38318-13.876449a7.492683 7.492683 0 0 1-4.118478-11.201561c17.867551-27.927727 31.102127-40.615337 43.604917-36.796566z" fill="#524F75" p-id="4328"></path><path d="M789.613893 601.979629c7.048117 0.619395 13.009795 13.679141 17.882536 39.176742l-42.30119-3.701386c9.228488-24.263805 17.368039-36.089756 24.418654-35.475356z" fill="#B0E6BB" p-id="4329"></path><path d="M788.190283 609.869424c-1.113912 0.884137-2.490068 2.517541-4.006088 4.897717-2.47758 3.8912-5.127493 9.413307-7.892293 16.518869l22.198322 1.163863c-2.008039-7.357815-4.061034-13.12718-6.124019-17.253151-1.258771-2.522537-2.452605-4.293307-3.474107-5.287337a5.362263 5.362263 0 0 0-0.332176-0.304702 5.92921 5.92921 0 0 0-0.369639 0.264741z m1.156371-15.409951c12.198088 0.639376 19.570888 15.399961 26.159453 44.341698 1.098927 4.845268-2.739824 9.408312-7.697483 9.146068l-42.406087-2.225327a7.500176 7.500176 0 0 1-6.703454-9.900332c9.583141-28.092566 18.459473-42.00398 30.647571-41.362107z" fill="#524F75" p-id="4330"></path><path d="M439.678127 708.170927c-46.339746 1.570966-81.403005-26.566556-82.961483-73.181034-0.149854-4.455649 1.705834-50.580605 6.366283-84.342634 2.442615-17.692722 7.295376-53.482771 14.558283-107.355161 3.59399-26.653971-14.563278-51.367337-41.07239-55.907903-34.568741-5.91922-58.273093-10.359883-71.113054-13.32199C238.36722 367.81081 219.785366 348.751922 219.785366 321.386146c0-27.428215 24.755824-42.093893 51.961756-43.934595 83.485971-0.247259 126.299161-0.247259 128.439571 0l98.908409-0.222283c63.885112 0 115.669541 52.094127 115.669542 116.356371v148.297678c0 38.577327 25.287805 72.594107 62.234224 83.708254 19.700761 5.926712 31.264468 9.188527 34.688625 9.780449 49.966205 8.634068 75.521249 0.72679 108.166868 7.580097 7.727454 1.61842 33.397385 13.789034-5.352273 25.829776-38.157737 11.853424-119.136156 31.434302-206.917932 39.389034-58.525346 5.302322-114.488195 5.302322-167.906029 0z" fill="#70C56E" p-id="4331"></path><path d="M439.678127 708.170927c53.415337 5.302322 109.380683 5.302322 167.906029 0 87.779278-7.957229 168.7552-27.53561 206.917932-39.389034 38.749659-12.035746 13.072234-24.206361 5.352273-25.829776-32.638127-6.853307-58.200663 1.053971-108.166868-7.580097-3.424156-0.591922-14.987863-3.853737-34.688625-9.780449-36.94642-11.109151-62.234224-45.125932-62.234224-83.708254v-148.297678c0-64.262244-51.784429-116.356371-115.669542-116.356371l-98.910907 0.222283c-2.14041-0.247259-44.956098-0.247259-128.439571 0C244.54119 279.289756 219.785366 293.955434 219.785366 321.386146c0 27.365776 18.586849 46.424663 45.675395 52.676059 12.839961 2.962107 36.544312 7.402771 71.113054 13.32199 26.509112 4.538068 44.66638 29.253932 41.07239 55.907903-7.262907 53.874888-12.115668 89.662439-14.558283 107.355161-4.660449 33.762029-6.516137 79.88199-6.366283 84.342634 1.558478 46.614478 36.619239 74.752 82.956488 73.181034z m-97.934361-72.68402c-0.362146-10.814439 2.694868-59.337054 6.498654-86.887648 2.440117-17.672741 7.29038-53.447805 14.553287-107.307708 2.515044-18.659278-10.195044-35.957385-28.751922-39.134283-34.838478-5.966673-58.750127-10.447298-71.954731-13.491824C227.572761 380.698224 204.8 355.275551 204.8 321.386146c0-34.473834 28.659512-56.364956 65.93561-58.884995 81.887532-0.272234 120.649678-0.294712 129.416117-0.027473l98.943375-0.229776c72.177015 0 130.654907 58.822556 130.654908 131.341737v148.297678a72.436761 72.436761 0 0 0 51.564644 69.359766c18.819122 5.661971 30.395317 8.921288 32.925346 9.360858 20.7872 3.591493 34.463844 4.318283 60.81561 4.228371 12.317971-0.042459 17.545366 0.01998 24.356214 0.414595 8.271922 0.477034 15.869502 1.426107 23.524527 3.034537 9.373346 1.970576 20.167805 7.789893 24.885698 16.606283 4.637971 8.676527 2.769795 18.5344-4.565542 25.71239-5.174946 5.065054-13.092215 9.00121-24.306263 12.485307-53.292956 16.556332-134.253893 33.142634-210.009912 40.010927-59.087298 5.354771-115.679532 5.384741-169.76921 0.079922-54.931356 1.41362-95.629112-33.844449-97.427356-87.689366z" fill="#524F75" p-id="4332"></path><path d="M414.727493 489.521951h19.720741a34.963356 34.963356 0 0 1 33.412371 24.665912c8.813893 28.592078 13.953873 47.541073 15.422439 56.841991 1.141385 7.225444 2.584976 24.576 4.330771 52.059161 2.100449 33.040234-22.980059 61.524917-56.020293 63.622868a60.316098 60.316098 0 0 1-3.801288 0.12238h-0.29721c-31.943805 0-57.838517-25.894712-57.838517-57.838517 0-1.878166 0.09241-3.756332 0.272234-5.624507l9.995239-102.275122c1.75079-17.917502 16.811083-31.574166 34.803513-31.574166z" fill="#FFFFFF" p-id="4333"></path><path d="M294.712195 281.575024l0.736781-11.713561c-0.002498-6.965698 5.964176-12.612683 13.316995-12.612683 7.355317 0 13.234576 5.075044 15.459902 12.612683L324.682927 282.22439" fill="#6FCB6C" p-id="4334"></path><path d="M317.190244 282.499122a7.492683 7.492683 0 1 0 14.975376-0.549463l-0.487025-13.304508-0.267239-0.904117c-3.161912-10.722029-11.928351-17.984937-22.645385-17.984936-11.313951 0-20.662322 8.768937-20.809678 19.840624l-0.726791 11.506263a7.492683 7.492683 0 0 0 14.957893 0.941581l0.736781-11.711064 0.014985-0.472039c0-2.732332 2.522537-5.12 5.82681-5.12 3.529054 0 6.53362 2.315239 8.009678 6.436215l0.414595 11.321444z" fill="#524F75" p-id="4335"></path><path d="M307.557151 270.872976c2.36519 0 4.28082 1.918127 4.28082 4.280819v2.789776a4.28082 4.28082 0 0 1-8.561639 0v-2.789776a4.275824 4.275824 0 0 1 4.280819-4.280819z" fill="#4E904C" p-id="4336"></path><path d="M247.258537 281.575024l0.794224-11.713561c-0.002498-6.965698 6.421229-12.612683 14.343493-12.612683s14.343493 5.646985 14.343492 12.612683L277.229268 282.22439" fill="#6FCB6C" p-id="4337"></path><path d="M262.396254 249.756098c-11.761015 0-21.671337 8.626576-21.836176 19.820643l-0.779239 11.491279a7.492683 7.492683 0 1 0 14.9504 1.014009l0.794224-11.713561 0.017483-0.507005c0-2.597463 2.8672-5.12 6.853308-5.12 3.98361 0 6.85081 2.522537 6.850809 5.12l0.004996 0.294713 0.489521 12.362926a7.490185 7.490185 0 0 0 7.7824 7.190478 7.490185 7.490185 0 0 0 7.190479-7.7824l-0.48203-12.233053c-0.097405-11.251512-10.032702-19.938029-21.836175-19.938029z" fill="#524F75" p-id="4338"></path><path d="M261.090029 270.872976c2.547512 0 4.610498 2.065483 4.610498 4.610497v2.132917a4.610498 4.610498 0 0 1-9.220995-0.002497v-2.13042a4.608 4.608 0 0 1 4.610497-4.610497z" fill="#4E904C" p-id="4339"></path><path d="M402.107317 264.741463m-34.965854 0a34.965854 34.965854 0 1 0 69.931708 0 34.965854 34.965854 0 1 0-69.931708 0Z" fill="#FFFFFF" p-id="4340"></path><path d="M402.107317 307.2C378.65522 307.2 359.64878 288.191063 359.64878 264.741463S378.65522 222.282927 402.107317 222.282927s42.458537 19.008937 42.458537 42.458536-19.011434 42.458537-42.458537 42.458537z m0-14.985366c15.172683 0 27.473171-12.300488 27.473171-27.473171S417.28 237.268293 402.107317 237.268293 374.634146 249.56878 374.634146 264.741463s12.295493 27.473171 27.473171 27.473171z" fill="#524F75" p-id="4341"></path><path d="M383.675317 272.763629a10.489756 10.489756 0 1 0 7.942244-17.345561 10.489756 10.489756 0 0 0-10.489756 10.277464l7.777405 1.128897-5.229893 5.9392z" fill="#232323" p-id="4342"></path><path d="M480.780488 263.492683m-43.707317 0a43.707317 43.707317 0 1 0 87.414634 0 43.707317 43.707317 0 1 0-87.414634 0Z" fill="#FFFFFF" p-id="4343"></path><path d="M480.780488 314.692683C452.503102 314.692683 429.580488 291.770068 429.580488 263.492683S452.503102 212.292683 480.780488 212.292683 531.980488 235.215298 531.980488 263.492683 509.052878 314.692683 480.780488 314.692683z m0-14.985366C500.778459 299.707317 516.995122 283.493151 516.995122 263.492683S500.778459 227.278049 480.780488 227.278049 444.565854 243.492215 444.565854 263.492683 460.777522 299.707317 480.780488 299.707317z" fill="#524F75" p-id="4344"></path><path d="M458.826927 274.814127a13.801522 13.801522 0 1 0-3.351727-9.295922l10.232507 1.488546-6.88078 7.807376z" fill="#232323" p-id="4345"></path><path d="M392.893815 329.688039c5.117502 0.412098 11.518751 13.729093 19.203746 39.950985l-34.965854-4.42318c5.382244-24.096468 10.637112-35.939902 15.762108-35.527805z" fill="#FFF660" p-id="4346"></path><path d="M389.674459 340.287688c-2.077971 4.680429-4.230868 11.588683-6.428722 20.667317l21.836175 2.762302c-2.909659-9.270946-5.602029-16.471415-8.052136-21.568936-1.436098-2.984585-2.752312-5.169951-3.886205-6.521132a8.454244 8.454244 0 0 0-0.479532-0.529483c-0.866654 0.986537-1.898146 2.727337-2.98958 5.189932z m27.213424 27.947707a4.995122 4.995122 0 0 1-5.419707 6.361288l-34.965854-4.423181a4.995122 4.995122 0 0 1-4.248351-6.044097c6.131512-27.428215 11.778498-40.16078 21.036956-39.416507 8.469229 0.676839 15.067785 14.403434 23.596956 43.522497z" fill="#524F75" p-id="4347"></path><path d="M348.125034 329.723005c6.216429 0.824195 11.723551 12.465327 16.518868 34.920897l-37.463414-2.192858c7.744937-22.645385 14.72562-33.554732 20.944546-32.728039z" fill="#FFFFFF" p-id="4348"></path><path d="M352.403356 341.20679c-2.100449-4.440663-3.946146-6.401249-4.93518-6.533619-2.240312-0.29721-7.390283 7.332839-13.336976 23.179863l24.163902 1.41362c-1.888156-7.737444-3.863727-13.769054-5.891746-18.059864z m-3.623961-16.436449c9.390829 1.246283 15.464898 14.091239 20.747239 38.832079a4.995122 4.995122 0 0 1-5.177444 6.029112l-37.463414-2.192859a4.995122 4.995122 0 0 1-4.435669-6.603551c8.629073-25.220371 16.408976-37.380995 26.329288-36.064781z" fill="#524F75" p-id="4349"></path><path d="M300.956098 329.693034c4.225873 0.427083 7.972215 10.412332 11.239024 29.955746l-27.473171-3.371707c6.598556-18.149776 12.010771-27.011122 16.234147-26.584039z" fill="#FFFFFF" p-id="4350"></path><path d="M297.988995 338.621815c-1.905639 3.119454-4.031063 7.620059-6.3488 13.471844l14.425912 1.77077c-1.226302-6.241405-2.502556-11.121639-3.811278-14.608234-0.649366-1.733307-1.286244-3.057015-1.858185-3.943649-0.684332 0.724293-1.503532 1.830712-2.407649 3.309269z m3.47161-13.898927c7.844839 0.791727 11.905873 11.623649 15.659707 34.101697a4.995122 4.995122 0 0 1-5.534595 5.781854l-27.473171-3.374205a4.995122 4.995122 0 0 1-4.086009-6.663493c7.610068-20.934556 13.541776-30.642576 21.434068-29.845853z" fill="#524F75" p-id="4351"></path><path d="M226.506302 355.854985c99.909932 12.360429 159.636605 18.973971 179.57963 19.878088 20.692293 0.936585 39.431493-2.532527 56.132683-10.439805a6.243902 6.243902 0 1 0-5.344781-11.286478c-14.793054 7.005659-31.506732 10.097639-50.223454 9.250966-19.46599-0.884137-79.13522-7.492683-178.610575-19.795668a6.243902 6.243902 0 1 0-1.533503 12.392897z" fill="#524F75" p-id="4352"></path><path d="M529.263121 521.41563c14.488046 2.379169 36.155912 3.883382 65.003597 4.51264 2.024311 6.251801 5.517388 10.379598 10.472199 12.397534 7.429898 3.016491 20.70288 8.962654 29.537133 6.221823 8.829307-2.741527 14.995601-5.557186 18.750902-18.943871 3.755301-13.386685-0.182211-26.73471-6.13603-32.232317-5.951345-5.497259-18.000214-8.84764-25.450312-9.871984-4.965908-0.68278-10.510371 1.279525-16.633043 5.884443-27.607151-10.245727-48.672878-17.541822-63.178476-21.895744L504.994293 453.678557" fill="#70C56E" p-id="4353"></path><path d="M601.91522 545.263244l1.171267 0.477352 1.292188 0.532178c1.115772 0.459464 1.981933 0.810707 2.873174 1.162952 3.911071 1.548419 7.249444 2.721264 10.579059 3.615447 7.078763 1.907858 13.222756 2.337537 18.665415 0.650966 13.365551-4.15195 19.712861-9.691263 23.744926-24.07816 4.199926-14.971133 0.514794-31.658265-8.266021-39.760023-6.536423-6.035987-18.594757-10.288091-29.51375-11.789868-6.096533-0.839157-12.335179 0.912093-18.702902 4.927708-25.808747-9.528911-45.706148-16.398509-59.734249-20.614704L507.636279 446.670182a7.492683 7.492683 0 1 0-5.284668 14.021696l36.631977 13.811723 0.493809 0.16524c14.32215 4.295353 35.252851 11.54725 62.726366 21.738887a7.482693 7.482693 0 0 0 7.111985-1.038337c4.676271-3.5194 8.367879-4.824061 11.104341-4.447043 8.155324 1.120935 17.591807 4.449698 21.389349 7.954448 4.371297 4.034321 6.760979 14.864652 4.006037 24.70461-2.521987 8.98996-4.888037 11.055956-13.764643 13.811013-2.186237 0.678888-5.735144 0.42981-10.322965-0.807661-2.684979-0.7254-5.531281-1.720638-8.947421-3.075916-1.298873-0.520507-5.660478-2.308792-5.21961-2.125771-2.774898-1.126441-4.787953-3.510272-6.169833-7.765073a7.492683 7.492683 0 0 0-6.961864-5.180255c-28.526242-0.619391-49.886769-2.10311-63.950458-4.415073a7.492683 7.492683 0 0 0-2.428994 14.788741c14.061911 2.306669 34.415101 3.797619 61.169824 4.495914 2.871608 5.606683 7.125044 9.690015 12.695709 11.955919z" fill="#524F75" p-id="4354"></path><path d="M505.484473 519.909852m-9.89302-1.390373a9.990244 9.990244 0 1 0 19.786039 2.780747 9.990244 9.990244 0 1 0-19.786039-2.780747Z" fill="#524F75" p-id="4355"></path><path d="M650.950318 508.131318l-19.159917-5.010566a3.746341 3.746341 0 0 0-1.898994 7.24899l19.157444 5.010218a3.748839 3.748839 0 0 0 1.901467-7.248642zM646.252079 523.130779l-19.15957-5.013039a3.748839 3.748839 0 0 0-1.898994 7.24899l19.157096 5.012691a3.753834 3.753834 0 0 0 4.573625-2.681354 3.736351 3.736351 0 0 0-2.672157-4.567288z" fill="#524F75" p-id="4356"></path></svg>